<?xml version="1.0" encoding="UTF-8" standalone="no"?>
<!DOCTYPE svg PUBLIC "-//W3C//DTD SVG 1.1//EN" "http://www.w3.org/Graphics/SVG/1.1/DTD/svg11.dtd">
<svg width="100%" height="100%" viewBox="0 0 665 223" version="1.1" xmlns="http://www.w3.org/2000/svg" xmlns:xlink="http://www.w3.org/1999/xlink" xml:space="preserve" xmlns:serif="http://www.serif.com/" style="fill-rule:evenodd;clip-rule:evenodd;stroke-linejoin:round;stroke-miterlimit:2;">
    <path d="M326.39,44.55L334.46,103.45L322.6,103.45L317.88,67.69L302.06,103.45L295.93,103.45L280.02,67.52L275.31,103.45L263.53,103.45L271.61,44.55L281.37,44.55L299.13,84.78L316.79,44.55L326.39,44.55Z" style="fill:rgb(47,47,47);fill-rule:nonzero;"/>
    <path d="M375.48,62.48C378.866,64.321 381.71,67.018 383.73,70.3C385.782,73.639 386.846,77.491 386.8,81.41C386.793,83.019 386.626,84.624 386.3,86.2L353.48,86.2C353.928,88.833 355.266,91.234 357.27,93C359.31,94.648 361.88,95.501 364.5,95.4C366.464,95.461 368.414,95.043 370.18,94.18C371.759,93.316 373.078,92.046 374,90.5L385.28,90.5C383.685,94.516 380.966,97.988 377.45,100.5C373.651,103.167 369.09,104.539 364.45,104.41C360.568,104.423 356.746,103.452 353.34,101.59C349.906,99.754 347.031,97.024 345.02,93.69C340.865,86.468 340.865,77.552 345.02,70.33C347.011,66.981 349.873,64.233 353.3,62.38C356.718,60.511 360.555,59.541 364.45,59.56C368.322,59.549 372.132,60.538 375.51,62.43M357.39,71C355.424,72.687 354.076,74.982 353.56,77.52L375.36,77.52C374.894,75.055 373.637,72.808 371.78,71.12C369.722,69.41 367.092,68.538 364.42,68.68C361.887,68.604 359.406,69.426 357.42,71" style="fill:rgb(47,47,47);fill-rule:nonzero;"/>
    <path d="M422.56,60L422.56,70.38L417.18,70.38C417.118,70.379 417.056,70.378 416.994,70.378C411.229,70.378 406.484,75.123 406.484,80.888C406.484,81.006 406.486,81.123 406.49,81.24L406.49,103.45L395.3,103.45L395.3,60.62L406.07,60.62L406.07,65.42C409.463,61.896 414.179,59.944 419.07,60.04L422.56,60Z" style="fill:rgb(47,47,47);fill-rule:nonzero;"/>
    <path d="M456.39,60L456.39,70.38L451,70.38C450.941,70.379 450.883,70.379 450.824,70.379C445.059,70.379 440.314,75.123 440.314,80.889C440.314,81.006 440.316,81.123 440.32,81.24L440.32,103.45L429.12,103.45L429.12,60.62L439.9,60.62L439.9,65.42C443.293,61.896 448.009,59.944 452.9,60.04L456.39,60Z" style="fill:rgb(47,47,47);fill-rule:nonzero;"/>
    <path d="M474.39,53.47L462.52,53.47L462.52,43.38L474.39,43.38L474.39,53.47ZM474.14,103.47L463,103.47L463,60.62L474.19,60.62L474.14,103.47Z" style="fill:rgb(47,47,47);fill-rule:nonzero;"/>
    <rect x="483.65" y="76.02" width="24.73" height="10.1" style="fill:rgb(47,47,47);"/>
    <path d="M553.31,62.47C556.633,64.388 559.392,67.147 561.31,70.47C565.346,77.646 565.346,86.434 561.31,93.61C559.396,96.936 556.636,99.696 553.31,101.61C550.151,103.476 546.549,104.464 542.88,104.47C540.212,104.524 537.557,104.083 535.05,103.17C532.767,102.282 530.715,100.887 529.05,99.09L529.05,103.46L518.31,103.46L518.31,42.87L529.5,42.87L529.5,64.58C531.13,62.93 533.098,61.654 535.27,60.84C537.711,59.971 540.29,59.555 542.88,59.61C546.549,59.621 550.149,60.608 553.31,62.47M549.69,90.66C551.984,88.374 553.233,85.237 553.14,82C553.14,75.401 547.709,69.97 541.11,69.97C534.511,69.97 529.08,75.401 529.08,82C528.987,85.237 530.236,88.374 532.53,90.66C537.296,95.234 544.924,95.234 549.69,90.66" style="fill:rgb(47,47,47);fill-rule:nonzero;"/>
    <path d="M603.51,62.48C606.894,64.324 609.738,67.02 611.76,70.3C613.812,73.639 614.876,77.491 614.83,81.41C614.82,83.02 614.649,84.624 614.32,86.2L581.5,86.2C581.948,88.833 583.286,91.234 585.29,93C587.334,94.647 589.907,95.5 592.53,95.4C594.494,95.46 596.444,95.041 598.21,94.18C599.776,93.309 601.084,92.04 602,90.5L613.27,90.5C611.679,94.515 608.963,97.988 605.45,100.5C601.65,103.165 597.09,104.537 592.45,104.41C588.572,104.421 584.753,103.451 581.35,101.59C577.913,99.754 575.035,97.025 573.02,93.69C568.865,86.468 568.865,77.552 573.02,70.33C575.014,66.983 577.875,64.236 581.3,62.38C584.718,60.511 588.555,59.541 592.45,59.56C596.325,59.548 600.139,60.536 603.52,62.43M585.41,71C583.447,72.688 582.103,74.983 581.59,77.52L603.38,77.52C602.918,75.053 601.66,72.805 599.8,71.12C597.743,69.409 595.112,68.537 592.44,68.68C589.907,68.604 587.426,69.426 585.44,71" style="fill:rgb(47,47,47);fill-rule:nonzero;"/>
    <path d="M645.03,81.41L664.89,103.45L651.42,103.45L634.93,84.77L634.93,103.45L623.74,103.45L623.74,42.87L634.93,42.87L634.93,78.63L650.59,60.63L663.54,60.63L645.03,81.41Z" style="fill:rgb(47,47,47);fill-rule:nonzero;"/>
    <path d="M305.37,167.41C302.115,165.528 299.424,162.806 297.58,159.53C293.784,152.786 293.784,144.524 297.58,137.78C301.351,131.107 308.455,126.976 316.12,127C320.316,126.92 324.427,128.197 327.84,130.64C331.267,133.137 333.899,136.572 335.42,140.53L330.31,140.53C328.992,137.86 326.991,135.587 324.51,133.94C322.019,132.311 319.096,131.465 316.12,131.51C313.219,131.493 310.369,132.282 307.89,133.79C305.382,135.292 303.313,137.427 301.89,139.98C298.959,145.372 298.959,151.898 301.89,157.29C303.307,159.848 305.378,161.984 307.89,163.48C310.368,164.991 313.218,165.784 316.12,165.77C319.162,165.831 322.154,164.981 324.71,163.33C327.207,161.695 329.223,159.423 330.55,156.75L335.66,156.75C334.134,160.71 331.494,164.146 328.06,166.64C324.571,169.096 320.386,170.372 316.12,170.28C312.342,170.305 308.626,169.306 305.37,167.39" style="fill:rgb(47,47,47);fill-rule:nonzero;"/>
    <path d="M347.44,134.59L342.21,134.59L342.21,129.06L347.44,129.06L347.44,134.59ZM347.08,169.69L342.57,169.69L342.57,140.24L347.08,140.24L347.08,169.69Z" style="fill:rgb(47,47,47);fill-rule:nonzero;"/>
    <path d="M370.21,144.33L362.7,144.33L362.7,160.68C362.691,160.798 362.686,160.916 362.686,161.034C362.686,163.486 364.704,165.504 367.156,165.504C367.274,165.504 367.392,165.499 367.51,165.49L370.21,165.49L370.21,169.69L367.21,169.69C364.798,169.796 362.444,168.919 360.69,167.26C359.013,165.611 358.105,163.33 358.19,160.98L358.19,144.33L353.38,144.33L353.38,140.24L358.19,140.24L358.19,132.43L362.7,132.43L362.7,140.24L370.21,140.24L370.21,144.33Z" style="fill:rgb(47,47,47);fill-rule:nonzero;"/>
    <path d="M387.76,162.54L397.56,140.24L402.37,140.24L383.74,181.71L378.93,181.71L385.23,167.59L372.32,140.24L377.37,140.24L387.76,162.54Z" style="fill:rgb(47,47,47);fill-rule:nonzero;"/>
    <path d="M431.94,167.41C428.689,165.527 426.001,162.805 424.16,159.53C420.352,152.789 420.352,144.521 424.16,137.78C427.924,131.106 435.027,126.974 442.69,127C446.886,126.919 450.998,128.196 454.41,130.64C457.837,133.137 460.469,136.572 461.99,140.53L456.88,140.53C455.568,137.856 453.565,135.581 451.08,133.94C448.589,132.311 445.666,131.465 442.69,131.51C439.789,131.494 436.94,132.284 434.46,133.79C431.955,135.295 429.886,137.429 428.46,139.98C425.543,145.375 425.543,151.895 428.46,157.29C429.88,159.845 431.95,161.981 434.46,163.48C436.939,164.989 439.788,165.782 442.69,165.77C445.735,165.829 448.73,164.979 451.29,163.33C453.784,161.695 455.797,159.423 457.12,156.75L462.23,156.75C460.704,160.71 458.064,164.146 454.63,166.64C451.141,169.096 446.956,170.372 442.69,170.28C438.912,170.305 435.196,169.306 431.94,167.39" style="fill:rgb(47,47,47);fill-rule:nonzero;"/>
    <path d="M474.7,168.28C472.384,166.959 470.456,165.052 469.11,162.75C467.719,160.391 466.986,157.703 466.986,154.964C466.986,149.474 469.935,144.388 474.7,141.66C479.492,138.969 485.358,138.969 490.15,141.66C494.909,144.394 497.854,149.481 497.854,154.97C497.854,160.459 494.909,165.546 490.15,168.28C485.354,170.957 479.496,170.957 474.7,168.28M487.8,164.61C489.42,163.638 490.757,162.259 491.68,160.61C493.599,157.092 493.599,152.828 491.68,149.31C490.756,147.662 489.419,146.283 487.8,145.31C484.489,143.352 480.361,143.352 477.05,145.31C475.431,146.283 474.094,147.662 473.17,149.31C471.251,152.828 471.251,157.092 473.17,160.61C474.093,162.259 475.43,163.638 477.05,164.61C480.357,166.581 484.493,166.581 487.8,164.61" style="fill:rgb(47,47,47);fill-rule:nonzero;"/>
    <path d="M510.52,168.64C508.609,167.573 507.044,165.979 506.01,164.05C504.928,161.992 504.381,159.695 504.42,157.37L504.42,140.24L508.93,140.24L508.93,157.37C508.835,159.681 509.655,161.938 511.21,163.65C514.533,166.871 519.887,166.871 523.21,163.65C524.772,161.942 525.596,159.683 525.5,157.37L525.5,140.24L530,140.24L530,157.37C530.039,159.695 529.492,161.992 528.41,164.05C527.379,165.981 525.813,167.575 523.9,168.64C519.711,170.852 514.689,170.852 510.5,168.64" style="fill:rgb(47,47,47);fill-rule:nonzero;"/>
    <path d="M558.84,141.35C560.657,142.485 562.125,144.102 563.08,146.02C564.096,148.049 564.61,150.292 564.58,152.56L564.58,169.69L560.08,169.69L560.08,152.56C560.189,150.26 559.412,148.004 557.91,146.26C556.382,144.616 554.201,143.732 551.96,143.85C550.425,143.833 548.912,144.215 547.57,144.96C546.259,145.69 545.17,146.761 544.42,148.06C543.628,149.426 543.224,150.982 543.25,152.56L543.25,169.69L538.74,169.69L538.74,140.24L543.25,140.24L543.25,144.15C544.371,142.73 545.796,141.578 547.42,140.78C549.025,140.016 550.783,139.626 552.56,139.64C554.774,139.597 556.954,140.191 558.84,141.35" style="fill:rgb(47,47,47);fill-rule:nonzero;"/>
    <path d="M578.74,168.28C576.448,166.958 574.549,165.049 573.24,162.75C570.51,157.925 570.51,152.005 573.24,147.18C574.553,144.886 576.451,142.981 578.74,141.66C581.026,140.324 583.632,139.632 586.28,139.66C589.381,139.624 592.417,140.55 594.97,142.31C597.54,144.06 599.452,146.619 600.4,149.58L595.59,149.58C594.756,147.827 593.419,146.361 591.75,145.37C590.098,144.38 588.206,143.861 586.28,143.87C584.433,143.86 582.621,144.369 581.05,145.34C579.455,146.314 578.147,147.695 577.26,149.34C575.422,152.879 575.422,157.101 577.26,160.64C578.15,162.283 579.457,163.663 581.05,164.64C582.621,165.611 584.433,166.12 586.28,166.11C588.207,166.12 590.101,165.598 591.75,164.6C593.419,163.613 594.756,162.15 595.59,160.4L600.4,160.4C599.452,163.361 597.54,165.92 594.97,167.67C592.414,169.424 589.379,170.349 586.28,170.32C583.632,170.348 581.026,169.656 578.74,168.32" style="fill:rgb(47,47,47);fill-rule:nonzero;"/>
    <path d="M611.59,134.59L606.36,134.59L606.36,129.06L611.59,129.06L611.59,134.59ZM611.23,169.69L606.72,169.69L606.72,140.24L611.23,140.24L611.23,169.69Z" style="fill:rgb(47,47,47);fill-rule:nonzero;"/>
    <rect x="620.54" y="126.42" width="4.5" height="43.27" style="fill:rgb(47,47,47);stroke:white;stroke-width:1px;"/>
    <path d="M152.39,213.22L110.67,0L111.23,0C111.243,-0 111.257,-0 111.27,-0C172.273,-0 222.47,50.197 222.47,111.2C222.47,139.921 211.343,167.554 191.44,188.26L191.44,35.06L152.39,213.22ZM110.66,0C49.647,0 -0.56,50.207 -0.56,111.22C-0.56,172.233 49.647,222.44 110.66,222.44L110.66,0Z" style="fill:rgb(47,47,47);fill-rule:nonzero;stroke:white;stroke-width:1px;"/>
</svg>
