<?xml version="1.0" encoding="UTF-8" standalone="no"?>
<!DOCTYPE svg PUBLIC "-//W3C//DTD SVG 1.1//EN" "http://www.w3.org/Graphics/SVG/1.1/DTD/svg11.dtd">
<svg width="100%" height="100%" viewBox="0 0 2152 220" version="1.1" xmlns="http://www.w3.org/2000/svg" xmlns:xlink="http://www.w3.org/1999/xlink" xml:space="preserve" xmlns:serif="http://www.serif.com/" style="fill-rule:evenodd;clip-rule:evenodd;stroke-linejoin:round;stroke-miterlimit:2;">
    <g transform="matrix(1,0,0,1,-26.7348,-87.2485)">
        <g transform="matrix(5.55556,0,0,5.55556,0,0)">
            <g transform="matrix(1,0,0,1,140.948,39.8602)">
                <path d="M0,-8.563C0.327,-8.537 0.522,-8.508 0.718,-8.508C8.351,-8.505 15.984,-8.497 23.617,-8.511C25.698,-8.515 27.045,-9.9 27.065,-11.972C27.084,-14.058 25.771,-15.506 23.699,-15.515C16.946,-15.544 10.192,-15.542 3.438,-15.515C1.45,-15.506 0.152,-14.253 0.015,-12.249C-0.067,-11.064 0,-9.869 0,-8.563M-0.012,-0.119C-0.012,1.158 -0.03,2.234 -0.008,3.309C0.039,5.591 1.251,6.869 3.53,6.97C4.564,7.015 5.605,6.908 6.643,6.907C15.998,6.902 25.353,6.904 34.707,6.906C34.862,6.906 35.017,6.929 35.162,6.941C35.617,9.633 33.565,13.017 30.646,14.433C29.402,15.037 28.082,15.294 26.704,15.294C18.789,15.292 10.873,15.315 2.957,15.287C-3.491,15.263 -8.332,10.399 -8.336,3.999C-8.34,-2.106 -8.349,-8.211 -8.333,-14.315C-8.321,-18.931 -5.324,-22.868 -1.181,-23.731C-0.64,-23.844 -0.072,-23.869 0.483,-23.869C8.399,-23.877 16.315,-23.878 24.23,-23.874C30.428,-23.871 35.332,-18.892 35.456,-12.703C35.542,-8.385 34.281,-4.783 30.7,-2.184C28.661,-0.705 26.35,-0.103 23.836,-0.11C16.36,-0.132 8.884,-0.119 1.408,-0.119L-0.012,-0.119Z" style="fill:rgb(1,2,3);fill-rule:nonzero;"/>
            </g>
        </g>
        <g transform="matrix(5.55556,0,0,5.55556,0,0)">
            <g transform="matrix(1,0,0,1,369.7,31.1954)">
                <path d="M0,8.47C-8.118,8.47 -16.108,8.463 -24.099,8.479C-25.034,8.481 -25.788,8.977 -26.326,9.715C-27.201,10.916 -27.258,12.267 -26.674,13.571C-26.082,14.893 -24.952,15.462 -23.483,15.458C-15.967,15.442 -8.45,15.451 -0.933,15.447C-0.626,15.446 -0.292,15.546 0,15.292L0,8.47ZM-0.03,-0.071C-0.03,-1.52 0.067,-2.996 -0.057,-4.454C-0.199,-6.132 -1.415,-7.016 -3.364,-7.019C-10.281,-7.029 -17.198,-7.023 -24.115,-7.023L-31.397,-7.023L-31.397,-15.187C-31.047,-15.459 -30.591,-15.325 -30.167,-15.325C-21.131,-15.334 -12.096,-15.338 -3.06,-15.33C3.36,-15.323 8.351,-10.354 8.354,-3.973C8.359,5.244 8.355,14.46 8.355,23.637C8.097,23.929 7.798,23.832 7.531,23.832C-2.824,23.837 -13.18,23.857 -23.535,23.828C-28.894,23.813 -32.936,21.019 -34.627,16.278C-36.352,11.444 -34.985,5.802 -31.323,2.708C-29.085,0.816 -26.446,0.077 -23.558,0.078C-16.161,0.082 -8.764,0.082 -1.367,0.074C-0.938,0.074 -0.49,0.188 -0.03,-0.071" style="fill:rgb(1,2,3);fill-rule:nonzero;"/>
            </g>
        </g>
        <g transform="matrix(5.55556,0,0,5.55556,0,0)">
            <g transform="matrix(1,0,0,1,13.0733,39.4921)">
                <path d="M0,-8.149C8.119,-8.149 16.114,-8.129 24.11,-8.167C25.654,-8.173 26.833,-9.462 26.977,-11.03C27.225,-13.733 25.923,-15.157 23.177,-15.158C15.819,-15.163 8.461,-15.161 1.103,-15.158C0.753,-15.158 0.403,-15.125 0,-15.105L0,-8.149ZM-8.261,15.567L-8.261,-23.466C-7.827,-23.747 -7.376,-23.622 -6.952,-23.622C3.322,-23.63 13.597,-23.63 23.871,-23.628C30.386,-23.627 35.22,-18.8 35.223,-12.3L35.223,-9.308C35.222,-5.88 34.641,-4.267 32.41,-1.595C32.77,-1.119 33.157,-0.635 33.513,-0.129C34.423,1.166 35.096,2.614 35.135,4.18C35.229,7.963 35.165,11.75 35.165,15.598L26.66,15.598C26.375,15.234 26.507,14.823 26.506,14.443C26.494,11.211 26.509,7.979 26.496,4.747C26.486,2.286 25.168,0.97 22.73,0.969C15.734,0.966 8.738,0.968 1.742,0.968L0.561,0.968L0.561,15.567L-8.261,15.567Z" style="fill:rgb(1,2,3);fill-rule:nonzero;"/>
            </g>
        </g>
        <g transform="matrix(5.55556,0,0,5.55556,0,0)">
            <g transform="matrix(1,0,0,1,88.3975,46.5942)">
                <path d="M0,-22.213L0,0.091L1.358,0.091C7.357,0.091 13.361,-0.045 19.355,0.141C23.129,0.258 25.99,-2.376 25.886,-6.397C25.802,-9.622 25.981,-12.856 26.056,-16.085C26.133,-19.421 23.776,-22.143 20.469,-22.186C13.675,-22.275 6.88,-22.213 0,-22.213M-8.669,-30.731L-7.278,-30.731C1.676,-30.731 10.63,-30.733 19.585,-30.73C27.836,-30.727 34.478,-24.15 34.445,-15.94C34.43,-12.074 34.733,-8.194 34.275,-4.344C33.438,2.701 27.301,8.325 20.171,8.408C10.659,8.52 1.144,8.433 -8.37,8.429C-8.445,8.429 -8.52,8.395 -8.669,8.359L-8.669,-30.731Z" style="fill:rgb(1,2,3);fill-rule:nonzero;"/>
            </g>
        </g>
        <g transform="matrix(5.55556,0,0,5.55556,0,0)">
            <g transform="matrix(1,0,0,1,257.044,24.1899)">
                <path d="M0,22.495C2.319,22.495 4.639,22.511 6.958,22.491C10.283,22.465 12.994,20.096 13.223,16.786C13.474,13.126 13.459,9.446 13.229,5.785C13.028,2.565 10.517,0.084 7.28,-0.001C2.445,-0.127 -2.396,-0.126 -7.231,-0.004C-10.514,0.078 -13.015,2.603 -13.21,5.885C-13.426,9.508 -13.432,13.144 -13.204,16.766C-12.999,20.025 -10.259,22.463 -6.958,22.491C-4.639,22.512 -2.319,22.495 0,22.495M-0.582,30.842C-3.14,30.699 -6.264,31.087 -9.368,30.625C-16.152,29.615 -21.562,23.402 -21.589,16.565C-21.603,13.213 -21.591,9.861 -21.591,6.509C-21.591,-1.391 -15.928,-7.776 -8.038,-8.236C-2.462,-8.561 3.16,-8.592 8.74,-8.186C15.756,-7.674 21.587,-1.16 21.609,5.872C21.62,9.344 21.611,12.815 21.61,16.287C21.609,24.224 15.124,30.765 7.169,30.839C4.771,30.86 2.371,30.842 -0.582,30.842" style="fill:rgb(1,2,3);fill-rule:nonzero;"/>
            </g>
        </g>
        <g transform="matrix(5.55556,0,0,5.55556,0,0)">
            <g transform="matrix(1,0,0,1,288.854,55.1613)">
                <path d="M0,-39.223L8.04,-39.223L8.04,-13.33C8.041,-9.83 9.632,-8.242 13.179,-8.239C21.372,-8.232 29.566,-8.236 37.76,-8.236L39.127,-8.236L39.127,-0.27C38.798,0 38.382,-0.137 38.002,-0.137C29.009,-0.128 20.016,-0.123 11.022,-0.132C5.368,-0.138 -0.006,-5.269 -0.059,-10.924C-0.145,-20.218 -0.08,-29.514 -0.076,-38.808C-0.075,-38.923 -0.035,-39.037 0,-39.223" style="fill:rgb(1,2,3);fill-rule:nonzero;"/>
            </g>
        </g>
        <g transform="matrix(5.55556,0,0,5.55556,0,0)">
            <g transform="matrix(1,0,0,1,229.673,54.9496)">
                <path d="M0,-38.856C-4.551,-35.616 -9.103,-32.377 -13.653,-29.137C-16.387,-27.191 -19.129,-25.257 -21.853,-23.295C-24.663,-21.27 -24.646,-18.071 -21.815,-16.047C-14.666,-10.935 -7.509,-5.833 -0.356,-0.726C-0.1,-0.542 0.146,-0.344 0.413,-0.142C0.107,0.25 -0.28,0.071 -0.603,0.072C-4.482,0.088 -8.362,0.07 -12.241,0.094C-12.913,0.098 -13.46,-0.06 -14.01,-0.458C-18.345,-3.6 -22.711,-6.698 -27.044,-9.842C-34.114,-14.97 -34.09,-24.538 -27.003,-29.62C-22.88,-32.577 -18.742,-35.514 -14.609,-38.457C-14.19,-38.755 -13.802,-39.106 -13.228,-39.106C-8.841,-39.099 -4.454,-39.102 -0.066,-39.102C-0.044,-39.02 -0.022,-38.938 0,-38.856" style="fill:rgb(235,95,44);fill-rule:nonzero;"/>
            </g>
        </g>
        <g transform="matrix(5.55556,0,0,5.55556,0,0)">
            <g transform="matrix(1,0,0,1,-8.50394,-8.3119)">
                <rect x="66.816" y="24.21" width="9.644" height="39.262" style="fill:rgb(1,2,3);"/>
            </g>
        </g>
        <g transform="matrix(5.55556,0,0,5.55556,0,0)">
            <g transform="matrix(-1,0,0,1,388.398,-8.8479)">
                <rect x="194.474" y="24.611" width="7.954" height="38.996" style="fill:rgb(1,2,3);"/>
            </g>
        </g>
        <g transform="matrix(5.55556,0,0,5.55556,0,0)">
            <g transform="matrix(-1,0,0,1,784.376,22.3431)">
                <rect x="392.338" y="24.378" width="8.204" height="8.271" style="fill:rgb(235,95,44);"/>
            </g>
        </g>
    </g>
</svg>
